<?xml version="1.0" encoding="utf-8"?>
<!-- Generator: Adobe Illustrator 16.0.0, SVG Export Plug-In . SVG Version: 6.00 Build 0)  -->
<!DOCTYPE svg PUBLIC "-//W3C//DTD SVG 1.1//EN" "http://www.w3.org/Graphics/SVG/1.1/DTD/svg11.dtd">
<svg version="1.1" id="Layer_1" xmlns="http://www.w3.org/2000/svg" xmlns:xlink="http://www.w3.org/1999/xlink" x="0px" y="0px"
	 width="968.547px" height="94px" viewBox="0 0 968.547 94" enable-background="new 0 0 968.547 94" xml:space="preserve">
<g>
	<path fill="#ADFF2F" d="M29.631,43.887L2.716,33.179v-8.434l37.256,14.813v8.654L2.716,62.954v-8.361L29.631,43.887z"/>
	<path fill="#ADFF2F" d="M73.632,43.887L46.718,33.179v-8.434l37.256,14.813v8.654L46.718,62.954v-8.361L73.632,43.887z"/>
</g>
<g>
	<path fill="#ADFF2F" d="M119.486,43.887L92.572,33.179v-8.434l37.256,14.813v8.654L92.572,62.954v-8.361L119.486,43.887z"/>
	<path fill="#ADFF2F" d="M163.488,43.887l-26.915-10.708v-8.434l37.256,14.813v8.654l-37.256,14.741v-8.361L163.488,43.887z"/>
</g>
<g>
	<path fill="#ADFF2F" d="M207.699,43.887l-26.915-10.708v-8.434l37.255,14.813v8.654l-37.255,14.741v-8.361L207.699,43.887z"/>
	<path fill="#ADFF2F" d="M251.701,43.887l-26.915-10.708v-8.434l37.256,14.813v8.654l-37.256,14.741v-8.361L251.701,43.887z"/>
</g>
<g>
	<path fill="#ADFF2F" d="M294.674,43.887l-26.915-10.708v-8.434l37.256,14.813v8.654l-37.256,14.741v-8.361L294.674,43.887z"/>
	<path fill="#ADFF2F" d="M338.677,43.887l-26.915-10.708v-8.434l37.256,14.813v8.654l-37.256,14.741v-8.361L338.677,43.887z"/>
</g>
<g>
	<path fill="#ADFF2F" d="M384.531,43.887l-26.915-10.708v-8.434l37.256,14.813v8.654l-37.256,14.741v-8.361L384.531,43.887z"/>
	<path fill="#ADFF2F" d="M428.532,43.887l-26.914-10.708v-8.434l37.255,14.813v8.654l-37.255,14.741v-8.361L428.532,43.887z"/>
</g>
<g>
	<path fill="#ADFF2F" d="M472.743,43.887l-26.915-10.708v-8.434l37.257,14.813v8.654l-37.257,14.741v-8.361L472.743,43.887z"/>
	<path fill="#ADFF2F" d="M516.745,43.887L489.83,33.179v-8.434l37.256,14.813v8.654L489.83,62.954v-8.361L516.745,43.887z"/>
</g>
<g>
	<path fill="#ADFF2F" d="M560.116,43.887l-26.915-10.708v-8.434l37.256,14.813v8.654l-37.256,14.741v-8.361L560.116,43.887z"/>
	<path fill="#ADFF2F" d="M604.118,43.887l-26.914-10.708v-8.434l37.255,14.813v8.654l-37.255,14.741v-8.361L604.118,43.887z"/>
</g>
<g>
	<path fill="#ADFF2F" d="M648.329,43.887l-26.915-10.708v-8.434l37.256,14.813v8.654l-37.256,14.741v-8.361L648.329,43.887z"/>
	<path fill="#ADFF2F" d="M692.331,43.887l-26.915-10.708v-8.434l37.256,14.813v8.654l-37.256,14.741v-8.361L692.331,43.887z"/>
</g>
<g>
	<path fill="#ADFF2F" d="M738.618,43.887l-26.915-10.708v-8.434l37.257,14.813v8.654l-37.257,14.741v-8.361L738.618,43.887z"/>
	<path fill="#ADFF2F" d="M782.62,43.887l-26.915-10.708v-8.434l37.256,14.813v8.654l-37.256,14.741v-8.361L782.62,43.887z"/>
</g>
<g>
	<path fill="#ADFF2F" d="M825.991,43.887l-26.915-10.708v-8.434l37.256,14.813v8.654l-37.256,14.741v-8.361L825.991,43.887z"/>
	<path fill="#ADFF2F" d="M869.993,43.887l-26.914-10.708v-8.434l37.255,14.813v8.654l-37.255,14.741v-8.361L869.993,43.887z"/>
</g>
<g>
	<path fill="#ADFF2F" d="M914.204,43.887l-26.915-10.708v-8.434l37.256,14.813v8.654l-37.256,14.741v-8.361L914.204,43.887z"/>
	<path fill="#ADFF2F" d="M958.206,43.887l-26.915-10.708v-8.434l37.256,14.813v8.654l-37.256,14.741v-8.361L958.206,43.887z"/>
</g>
</svg>
