<?xml version="1.0" encoding="utf-8"?>
<!-- Generator: Adobe Illustrator 16.0.0, SVG Export Plug-In . SVG Version: 6.00 Build 0)  -->
<!DOCTYPE svg PUBLIC "-//W3C//DTD SVG 1.1//EN" "http://www.w3.org/Graphics/SVG/1.1/DTD/svg11.dtd">
<svg version="1.1" xmlns="http://www.w3.org/2000/svg" xmlns:xlink="http://www.w3.org/1999/xlink" x="0px" y="0px" width="500px"
	 height="300px" viewBox="0 0 500 300" enable-background="new 0 0 500 300" xml:space="preserve">
<g id="bg">
	<rect x="10" y="10" opacity="0.7" fill="#C8FCE9" width="480" height="280"/>
</g>
<g id="logo">
	<g>
		<path fill="#ADFF2F" d="M287.972,60.55l-6.584-26.446h-0.108l-6.476,26.446h-8.652l-10.284-38.853h8.543l6.148,26.446h0.109
			l6.748-26.446h7.998l6.639,26.772h0.109l6.365-26.772h8.381L296.461,60.55H287.972z"/>
		<path fill="#ADFF2F" d="M327.585,21.697c2.504,0,4.833,0.399,6.992,1.198c2.158,0.798,4.026,1.995,5.604,3.591
			c1.578,1.597,2.811,3.592,3.701,5.986c0.889,2.394,1.332,5.206,1.332,8.434c0,2.83-0.362,5.441-1.087,7.835
			c-0.727,2.394-1.823,4.462-3.294,6.204c-1.469,1.741-3.3,3.11-5.495,4.108s-4.779,1.497-7.754,1.497h-16.759V21.697H327.585z
			 M326.986,53.367c1.233,0,2.431-0.199,3.592-0.599c1.16-0.399,2.194-1.062,3.102-1.986c0.906-0.925,1.633-2.131,2.176-3.619
			c0.545-1.486,0.816-3.3,0.816-5.441c0-1.958-0.19-3.728-0.571-5.306c-0.381-1.578-1.007-2.93-1.877-4.054
			c-0.871-1.123-2.023-1.985-3.455-2.585c-1.434-0.598-3.203-0.897-5.307-0.897h-6.094v24.487H326.986z"/>
		<path fill="#ADFF2F" d="M359.689,21.697V60.55h-8.543V21.697H359.689z"/>
	</g>
	<g>
		<path fill="#40E0D0" d="M378.504,35.175c-1.296,0-2.381,0.295-3.257,0.887c-0.876,0.59-1.59,1.352-2.142,2.284
			c-0.554,0.935-0.943,1.962-1.172,3.085c-0.229,1.125-0.343,2.238-0.343,3.343c0,1.067,0.114,2.151,0.343,3.256
			c0.229,1.106,0.6,2.105,1.114,3c0.514,0.896,1.209,1.629,2.084,2.2c0.877,0.571,1.944,0.857,3.201,0.857
			c1.942,0,3.436-0.543,4.485-1.628c1.046-1.086,1.703-2.543,1.971-4.37h7.828c-0.535,3.922-2.058,6.913-4.571,8.969
			c-2.515,2.058-5.733,3.085-9.656,3.085c-2.21,0-4.238-0.371-6.085-1.114c-1.849-0.742-3.419-1.779-4.715-3.114
			c-1.294-1.331-2.304-2.922-3.026-4.769c-0.725-1.848-1.086-3.876-1.086-6.086c0-2.286,0.333-4.408,0.999-6.371
			c0.667-1.961,1.647-3.657,2.943-5.084c1.295-1.429,2.875-2.543,4.742-3.343c1.865-0.8,3.999-1.2,6.398-1.2
			c1.752,0,3.438,0.229,5.058,0.685c1.618,0.458,3.066,1.153,4.342,2.087c1.275,0.933,2.313,2.095,3.114,3.485
			c0.8,1.391,1.257,3.039,1.371,4.942h-7.941C383.97,36.87,381.969,35.175,378.504,35.175z"/>
		<path fill="#40E0D0" d="M397.358,38.232c0.723-1.924,1.752-3.562,3.086-4.915c1.332-1.352,2.932-2.4,4.798-3.142
			c1.866-0.743,3.962-1.115,6.285-1.115s4.429,0.372,6.314,1.115c1.885,0.742,3.494,1.79,4.828,3.142
			c1.333,1.353,2.36,2.991,3.085,4.915c0.723,1.923,1.085,4.065,1.085,6.427c0,2.363-0.362,4.496-1.085,6.399
			c-0.725,1.906-1.752,3.534-3.085,4.885c-1.334,1.353-2.943,2.392-4.828,3.114c-1.886,0.724-3.991,1.085-6.314,1.085
			s-4.419-0.361-6.285-1.085c-1.866-0.723-3.466-1.762-4.798-3.114c-1.334-1.352-2.363-2.979-3.086-4.885
			c-0.724-1.903-1.086-4.036-1.086-6.399C396.272,42.297,396.635,40.155,397.358,38.232z M404.729,48.116
			c0.229,1.123,0.618,2.134,1.171,3.029c0.552,0.895,1.286,1.609,2.2,2.141c0.914,0.535,2.057,0.801,3.428,0.801
			c1.372,0,2.523-0.266,3.457-0.801c0.934-0.532,1.676-1.246,2.228-2.141c0.553-0.895,0.943-1.906,1.172-3.029
			c0.229-1.123,0.343-2.275,0.343-3.457c0-1.18-0.113-2.343-0.343-3.485c-0.229-1.142-0.619-2.151-1.172-3.028
			c-0.552-0.875-1.294-1.589-2.228-2.142c-0.934-0.552-2.085-0.829-3.457-0.829c-1.371,0-2.514,0.277-3.428,0.829
			c-0.914,0.553-1.648,1.267-2.2,2.142c-0.553,0.877-0.942,1.886-1.171,3.028c-0.229,1.143-0.343,2.305-0.343,3.485
			C404.386,45.841,404.5,46.994,404.729,48.116z"/>
		<path fill="#40E0D0" d="M439.811,29.861v4.114h0.17c1.029-1.715,2.362-2.96,4-3.742c1.638-0.781,3.314-1.172,5.028-1.172
			c2.17,0,3.951,0.295,5.341,0.885c1.391,0.593,2.486,1.411,3.286,2.458c0.8,1.049,1.362,2.324,1.686,3.828
			c0.323,1.506,0.486,3.171,0.486,4.999V59.4h-8.115V42.717c0-2.437-0.38-4.257-1.142-5.456s-2.114-1.799-4.056-1.799
			c-2.21,0-3.811,0.657-4.8,1.971c-0.991,1.314-1.485,3.476-1.485,6.484V59.4h-8.114V29.861H439.811z"/>
		<path fill="#40E0D0" d="M462.892,35.289v-5.427h4.857v-2.285c0-2.628,0.818-4.78,2.456-6.457c1.637-1.675,4.113-2.514,7.428-2.514
			c0.724,0,1.447,0.027,2.172,0.084c0.723,0.058,1.428,0.105,2.113,0.143v6.057c-0.953-0.115-1.942-0.172-2.971-0.172
			c-1.105,0-1.896,0.257-2.371,0.772c-0.477,0.515-0.715,1.381-0.715,2.6v1.771h5.601v5.427h-5.601V59.4h-8.112V35.289H462.892z"/>
	</g>
	<path fill="#7FFFD4" d="M318.514,72.466c0.516-1.661,1.288-3.111,2.321-4.354c1.032-1.242,2.331-2.209,3.896-2.903
		c1.564-0.693,3.363-1.04,5.395-1.04c1.549,0,3.024,0.241,4.428,0.726c1.403,0.483,2.637,1.178,3.701,2.081s1.911,2.017,2.541,3.338
		c0.629,1.323,0.944,2.808,0.944,4.452c0,1.71-0.276,3.178-0.823,4.403c-0.549,1.227-1.274,2.314-2.178,3.266
		c-0.903,0.952-1.928,1.814-3.072,2.589c-1.146,0.774-2.299,1.541-3.46,2.298c-1.161,0.759-2.291,1.572-3.387,2.444
		c-1.098,0.871-2.065,1.887-2.903,3.048h16.016v5.903h-24.871c0-1.967,0.283-3.677,0.848-5.129s1.33-2.75,2.298-3.896
		c0.968-1.144,2.105-2.202,3.411-3.169s2.686-1.952,4.138-2.952c0.741-0.516,1.531-1.04,2.37-1.572
		c0.839-0.531,1.604-1.12,2.299-1.766c0.692-0.646,1.274-1.37,1.741-2.178c0.468-0.806,0.702-1.726,0.702-2.758
		c0-1.646-0.477-2.928-1.428-3.847s-2.17-1.38-3.652-1.38c-1.001,0-1.848,0.235-2.54,0.702c-0.694,0.468-1.251,1.081-1.67,1.839
		c-0.42,0.758-0.718,1.597-0.896,2.517c-0.177,0.919-0.267,1.83-0.267,2.733h-6.579C317.77,75.926,317.996,74.128,318.514,72.466z"
		/>
	<path fill="#7FFFD4" d="M345.717,73.337c0.662-2.241,1.558-4.04,2.686-5.396c1.129-1.354,2.444-2.321,3.943-2.902
		c1.5-0.581,3.089-0.871,4.768-0.871c1.709,0,3.314,0.29,4.814,0.871c1.499,0.581,2.822,1.548,3.967,2.902
		c1.145,1.355,2.049,3.154,2.71,5.396c0.66,2.242,0.991,5.009,0.991,8.299c0,3.387-0.331,6.218-0.991,8.491
		c-0.661,2.274-1.565,4.089-2.71,5.443c-1.145,1.355-2.468,2.323-3.967,2.904c-1.5,0.58-3.105,0.871-4.814,0.871
		c-1.679,0-3.268-0.291-4.768-0.871c-1.499-0.581-2.814-1.549-3.943-2.904c-1.128-1.354-2.023-3.169-2.686-5.443
		c-0.661-2.273-0.991-5.104-0.991-8.491C344.726,78.346,345.056,75.579,345.717,73.337z M351.693,85.144
		c0.064,1.371,0.267,2.694,0.605,3.968c0.338,1.275,0.878,2.363,1.621,3.267c0.741,0.903,1.806,1.354,3.193,1.354
		c1.419,0,2.507-0.451,3.266-1.354c0.757-0.903,1.306-1.991,1.645-3.267c0.339-1.273,0.541-2.597,0.605-3.968
		c0.063-1.371,0.097-2.54,0.097-3.508c0-0.581-0.009-1.282-0.024-2.105c-0.017-0.822-0.08-1.669-0.193-2.539
		c-0.113-0.872-0.274-1.734-0.484-2.59c-0.21-0.854-0.523-1.62-0.943-2.298c-0.419-0.678-0.952-1.226-1.597-1.646
		c-0.646-0.419-1.437-0.629-2.37-0.629c-0.938,0-1.719,0.21-2.347,0.629c-0.631,0.42-1.146,0.968-1.55,1.646
		s-0.718,1.444-0.943,2.298c-0.226,0.855-0.387,1.718-0.482,2.59c-0.098,0.87-0.154,1.717-0.17,2.539
		c-0.017,0.823-0.024,1.524-0.024,2.105C351.597,82.604,351.628,83.772,351.693,85.144z"/>
	<path fill="#7FFFD4" d="M381.948,98.716V76.748h-8.516V71.57c1.193,0.033,2.347-0.056,3.458-0.266
		c1.113-0.209,2.113-0.58,3.001-1.112s1.637-1.234,2.25-2.104c0.612-0.872,1.016-1.952,1.21-3.242h5.467v33.87H381.948z"/>
	<path fill="#7FFFD4" d="M404.871,70.507l-1.355,7.693l0.097,0.097c0.936-0.935,1.937-1.604,3-2.008
		c1.065-0.403,2.274-0.604,3.629-0.604c1.677,0,3.161,0.306,4.452,0.919c1.29,0.613,2.378,1.436,3.266,2.468s1.564,2.25,2.033,3.652
		c0.467,1.403,0.701,2.896,0.701,4.476c0,1.742-0.339,3.363-1.017,4.863c-0.677,1.501-1.589,2.799-2.734,3.896
		s-2.475,1.944-3.991,2.54s-3.129,0.879-4.84,0.848c-1.645,0-3.217-0.218-4.717-0.654c-1.5-0.435-2.83-1.104-3.991-2.008
		c-1.162-0.902-2.09-2.023-2.783-3.363c-0.694-1.338-1.057-2.895-1.088-4.669h6.87c0.161,1.549,0.743,2.782,1.743,3.701
		c0.998,0.92,2.273,1.38,3.822,1.38c0.903,0,1.718-0.185,2.442-0.556c0.726-0.371,1.339-0.855,1.839-1.452s0.888-1.29,1.161-2.08
		c0.275-0.791,0.411-1.605,0.411-2.445c0-0.87-0.129-1.692-0.387-2.467c-0.259-0.774-0.645-1.452-1.16-2.032
		c-0.518-0.581-1.13-1.032-1.839-1.355c-0.711-0.322-1.533-0.483-2.468-0.483c-1.226,0-2.227,0.219-3.001,0.653
		s-1.5,1.121-2.178,2.056h-6.192l3.338-18.725h18.919v5.661H404.871z"/>
	<g>
		<path fill="#ADFF2F" d="M444.64,82.119l-16.723-6.652v-5.239l23.147,9.203v5.378l-23.147,9.158v-5.195L444.64,82.119z"/>
		<path fill="#ADFF2F" d="M471.979,82.119l-16.721-6.652v-5.239l23.146,9.203v5.378l-23.146,9.158v-5.195L471.979,82.119z"/>
	</g>
</g>
<g id="text">
	<text transform="matrix(1 0 0 1 79 178)"><tspan x="0" y="0" fill="#2F4F4F" font-family="'HelveticaNeue'" font-size="18">Thanks for registering.</tspan><tspan x="0" y="21.6" fill="#2F4F4F" font-family="'HelveticaNeue'" font-size="18">See you on Friday morning at 9.00am!</tspan></text>
</g>
</svg>
