<?xml version="1.0" encoding="utf-8"?>
<!-- Generator: Adobe Illustrator 16.0.0, SVG Export Plug-In . SVG Version: 6.00 Build 0)  -->
<!DOCTYPE svg PUBLIC "-//W3C//DTD SVG 1.1//EN" "http://www.w3.org/Graphics/SVG/1.1/DTD/svg11.dtd">
<svg version="1.1" xmlns="http://www.w3.org/2000/svg" xmlns:xlink="http://www.w3.org/1999/xlink" x="0px" y="0px" width="743px"
	 height="934px" viewBox="0 0 743 934" enable-background="new 0 0 743 934" xml:space="preserve">
<g id="Layer_2">
	<rect fill="#EFF9F3" width="743" height="934"/>
</g>
<g id="Layer_1" opacity="0.15">
	<polygon fill="#00FFFF" points="92.368,329 151.834,226 211.301,329 	"/>
	<polygon fill="#98FB98" points="216.594,226 278.947,118 341.301,226 	"/>
	<polygon fill="#98FB98" points="601.699,573 672.35,450.629 743,573 	"/>
	<polygon fill="#98FB98" points="1034.699,526 1078,451 1121.301,526 	"/>
	<polygon fill="#00FFFF" points="30.699,676 132.312,500 233.924,676 	"/>
	<polygon fill="#98FB98" points="298.699,601 342,526 385.301,601 	"/>
	<polygon fill="#7FFFD4" points="190.699,811 234,736 277.301,811 	"/>
	<polygon fill="#7FFFD4" points="-22.301,172 21,97 64.301,172 	"/>
	<polygon fill="#00FFFF" points="515.699,676 559,601 602.301,676 	"/>
	<polygon fill="#00FFFF" points="669.721,883 698.011,834 726.301,883 	"/>
	<polygon fill="#00FFFF" points="514.699,455 558,380 601.301,455 	"/>
	<polygon fill="#ADFF2F" points="297.699,601 341,526 384.301,601 	"/>
	<polygon fill="#ADFF2F" points="514.398,934 543.85,882.988 573.301,934 	"/>
	<polygon fill="#ADFF2F" points="557.842,311 650.423,150.648 743,311 	"/>
</g>
</svg>
