<?xml version="1.0" encoding="utf-8"?>
<!-- Generator: Adobe Illustrator 16.0.0, SVG Export Plug-In . SVG Version: 6.00 Build 0)  -->
<!DOCTYPE svg PUBLIC "-//W3C//DTD SVG 1.1//EN" "http://www.w3.org/Graphics/SVG/1.1/DTD/svg11.dtd">
<svg version="1.1" id="Layer_1" xmlns="http://www.w3.org/2000/svg" xmlns:xlink="http://www.w3.org/1999/xlink" x="0px" y="0px"
	 width="1246.589px" height="454.431px" viewBox="0 0 1246.589 454.431" enable-background="new 0 0 1246.589 454.431"
	 xml:space="preserve">
<g>
	<path fill="#ADFF2F" d="M183.806,235.479l-36.08-144.919h-0.594l-35.484,144.919H64.235L7.88,22.573h46.813l33.693,144.917h0.599
		l36.978-144.917h43.828l36.378,146.708h0.6l34.879-146.708h45.925l-57.249,212.905H183.806z"/>
	<path fill="#ADFF2F" d="M400.877,22.573c13.722,0,26.484,2.189,38.316,6.563c11.826,4.375,22.063,10.933,30.71,19.677
		c8.647,8.75,15.401,19.682,20.282,32.804c4.869,13.116,7.299,28.527,7.299,46.214c0,15.508-1.985,29.815-5.957,42.937
		c-3.982,13.118-9.991,24.454-18.05,33.995c-8.049,9.542-18.082,17.044-30.112,22.512c-12.029,5.469-26.189,8.203-42.49,8.203
		h-91.834V22.573H400.877z M397.597,196.117c6.76,0,13.32-1.091,19.684-3.282c6.356-2.187,12.024-5.817,16.996-10.883
		c4.965-5.069,8.947-11.676,11.921-19.832c2.987-8.145,4.475-18.085,4.475-29.815c0-10.731-1.044-20.43-3.13-29.074
		c-2.087-8.647-5.518-16.055-10.286-22.216c-4.773-6.154-11.088-10.879-18.934-14.165c-7.854-3.275-17.552-4.916-29.079-4.916
		h-33.392v134.182H397.597z"/>
	<path fill="#ADFF2F" d="M576.802,22.573v212.905H529.99V22.573H576.802z"/>
</g>
<g>
	<path fill="#40E0D0" d="M679.901,96.43c-7.101,0-13.046,1.617-17.846,4.859c-4.801,3.232-8.712,7.407-11.735,12.517
		c-3.034,5.121-5.17,10.753-6.422,16.905c-1.252,6.161-1.879,12.266-1.879,18.32c0,5.846,0.627,11.789,1.879,17.845
		c1.252,6.062,3.285,11.535,6.105,16.436c2.815,4.91,6.626,8.927,11.42,12.058c4.805,3.126,10.654,4.694,17.542,4.694
		c10.644,0,18.826-2.977,24.579-8.923c5.731-5.95,9.331-13.937,10.799-23.947h42.896c-2.934,21.493-11.274,37.879-25.051,49.15
		c-13.778,11.274-31.416,16.905-52.913,16.905c-12.11,0-23.225-2.034-33.345-6.106c-10.13-4.067-18.735-9.75-25.836-17.066
		c-7.089-7.293-12.624-16.011-16.584-26.133c-3.97-10.128-5.95-21.239-5.95-33.35c0-12.525,1.823-24.156,5.474-34.909
		c3.654-10.748,9.027-20.038,16.128-27.86c7.096-7.831,15.755-13.935,25.986-18.32c10.221-4.383,21.914-6.577,35.062-6.577
		c9.6,0,18.841,1.256,27.714,3.755c8.867,2.509,16.804,6.32,23.793,11.436c6.988,5.113,12.678,11.481,17.064,19.095
		c4.384,7.621,6.888,16.651,7.515,27.08H712.78C709.854,105.718,698.889,96.43,679.901,96.43z"/>
	<path fill="#40E0D0" d="M783.221,113.186c3.96-10.543,9.601-19.517,16.91-26.931c7.3-7.409,16.064-13.151,26.291-17.219
		c10.227-4.072,21.71-6.109,34.441-6.109c12.73,0,24.269,2.037,34.602,6.109c10.329,4.067,19.147,9.81,26.457,17.219
		c7.305,7.414,12.936,16.387,16.905,26.931c3.96,10.537,5.944,22.275,5.944,35.217c0,12.947-1.984,24.635-5.944,35.064
		c-3.97,10.446-9.601,19.364-16.905,26.771c-7.31,7.412-16.128,13.105-26.457,17.065c-10.333,3.966-21.871,5.947-34.602,5.947
		c-12.731,0-24.215-1.98-34.441-5.947c-10.227-3.96-18.991-9.653-26.291-17.065c-7.31-7.407-12.95-16.325-16.91-26.771
		c-3.965-10.429-5.951-22.117-5.951-35.064C777.27,135.46,779.256,123.722,783.221,113.186z M823.607,167.346
		c1.253,6.153,3.387,11.693,6.416,16.597c3.023,4.905,7.047,8.819,12.056,11.732c5.011,2.931,11.271,4.388,18.784,4.388
		c7.519,0,13.828-1.457,18.944-4.388c5.116-2.913,9.182-6.827,12.205-11.732c3.029-4.904,5.171-10.444,6.423-16.597
		c1.257-6.152,1.879-12.47,1.879-18.944c0-6.468-0.622-12.838-1.879-19.099c-1.252-6.259-3.394-11.789-6.423-16.596
		c-3.023-4.797-7.089-8.708-12.205-11.737c-5.116-3.023-11.426-4.541-18.944-4.541c-7.513,0-13.773,1.518-18.784,4.541
		c-5.009,3.029-9.032,6.94-12.056,11.737c-3.029,4.807-5.163,10.337-6.416,16.596c-1.252,6.261-1.879,12.631-1.879,19.099
		C821.729,154.876,822.355,161.194,823.607,167.346z"/>
	<path fill="#40E0D0" d="M1015.85,67.313v22.543h0.931c5.641-9.397,12.945-16.224,21.919-20.507
		c8.974-4.281,18.162-6.422,27.555-6.422c11.891,0,21.651,1.62,29.267,4.852c7.619,3.248,13.624,7.732,18.006,13.467
		c4.384,5.747,7.466,12.733,9.237,20.978c1.771,8.251,2.664,17.375,2.664,27.393v99.564h-44.469v-91.423
		c0-13.354-2.081-23.325-6.256-29.897c-4.174-6.572-11.586-9.861-22.224-9.861c-12.111,0-20.882,3.6-26.302,10.8
		c-5.432,7.2-8.14,19.048-8.14,35.533v84.848h-44.465V67.313H1015.85z"/>
	<path fill="#40E0D0" d="M1142.328,97.054v-29.74h26.618V54.791c0-14.402,4.484-26.195,13.458-35.38
		c8.97-9.181,22.54-13.775,40.703-13.775c3.965,0,7.931,0.15,11.9,0.463c3.961,0.316,7.824,0.578,11.581,0.784v33.192
		c-5.224-0.631-10.645-0.945-16.278-0.945c-6.059,0-10.387,1.41-12.994,4.23c-2.611,2.823-3.918,7.569-3.918,14.246v9.707h30.691
		v29.74h-30.691v132.127h-44.452V97.054H1142.328z"/>
</g>
<path fill="#7FFFD4" d="M351.169,300.776c2.826-9.104,7.058-17.05,12.72-23.861c5.656-6.808,12.774-12.105,21.346-15.909
	c8.574-3.8,18.431-5.699,29.561-5.699c8.488,0,16.574,1.321,24.264,3.976c7.689,2.648,14.449,6.454,20.281,11.403
	c5.833,4.95,10.473,11.051,13.924,18.292c3.447,7.251,5.175,15.384,5.175,24.396c0,9.37-1.515,17.414-4.511,24.129
	c-3.007,6.721-6.983,12.683-11.933,17.895c-4.95,5.217-10.563,9.943-16.835,14.188c-6.282,4.244-12.597,8.444-18.96,12.591
	c-6.363,4.158-12.553,8.615-18.559,13.396c-6.014,4.773-11.318,10.338-15.909,16.701h87.761v32.348H343.206
	c0-10.776,1.551-20.146,4.646-28.104c3.092-7.958,7.288-15.069,12.59-21.348c5.305-6.268,11.539-12.067,18.693-17.365
	s14.717-10.698,22.673-16.178c4.061-2.825,8.391-5.699,12.987-8.615c4.597-2.911,8.787-6.138,12.597-9.674
	c3.795-3.538,6.984-7.509,9.542-11.934c2.563-4.416,3.848-9.456,3.848-15.113c0-9.018-2.612-16.043-7.824-21.079
	c-5.212-5.035-11.89-7.562-20.013-7.562c-5.486,0-10.125,1.289-13.92,3.848c-3.804,2.562-6.854,5.925-9.15,10.078
	c-2.301,4.151-3.933,8.748-4.908,13.79c-0.968,5.035-1.461,10.027-1.461,14.978h-36.052
	C347.092,319.737,348.332,309.885,351.169,300.776z"/>
<path fill="#7FFFD4" d="M500.235,305.55c3.629-12.281,8.537-22.139,14.717-29.566c6.187-7.422,13.394-12.72,21.609-15.903
	c8.219-3.185,16.925-4.773,26.124-4.773c9.365,0,18.164,1.589,26.383,4.773c8.214,3.184,15.465,8.481,21.737,15.903
	c6.271,7.428,11.228,17.285,14.85,29.566c3.617,12.286,5.432,27.446,5.432,45.477c0,18.559-1.815,34.072-5.432,46.529
	c-3.622,12.463-8.579,22.406-14.85,29.829c-6.272,7.427-13.523,12.729-21.737,15.915c-8.219,3.178-17.018,4.773-26.383,4.773
	c-9.199,0-17.905-1.596-26.124-4.773c-8.215-3.186-15.422-8.488-21.609-15.915c-6.18-7.423-11.088-17.366-14.717-29.829
	c-3.622-12.457-5.431-27.971-5.431-46.529C494.805,332.996,496.613,317.836,500.235,305.55z M532.987,370.249
	c0.353,7.513,1.46,14.764,3.318,21.742c1.851,6.988,4.81,12.95,8.883,17.899c4.062,4.95,9.895,7.423,17.498,7.423
	c7.777,0,13.737-2.473,17.895-7.423c4.148-4.949,7.155-10.911,9.012-17.899c1.857-6.979,2.965-14.229,3.318-21.742
	c0.348-7.515,0.53-13.92,0.53-19.223c0-3.186-0.049-7.027-0.133-11.539c-0.091-4.504-0.44-9.145-1.061-13.913
	c-0.621-4.778-1.504-9.503-2.654-14.19c-1.151-4.678-2.869-8.878-5.17-12.593c-2.296-3.714-5.217-6.716-8.748-9.017
	c-3.538-2.296-7.873-3.446-12.989-3.446c-5.136,0-9.417,1.15-12.859,3.446c-3.456,2.301-6.283,5.303-8.491,9.017
	c-2.21,3.715-3.935,7.915-5.17,12.593c-1.237,4.688-2.12,9.412-2.644,14.19c-0.535,4.769-0.846,9.409-0.932,13.913
	c-0.091,4.512-0.133,8.354-0.133,11.539C532.457,356.329,532.627,362.734,532.987,370.249z"/>
<path fill="#7FFFD4" d="M698.776,444.62V324.243h-46.664v-28.375c6.54,0.184,12.859-0.304,18.95-1.455
	c6.1-1.145,11.579-3.179,16.444-6.095c4.864-2.916,8.969-6.763,12.328-11.531c3.356-4.778,5.567-10.698,6.631-17.768h29.958V444.62
	H698.776z"/>
<path fill="#7FFFD4" d="M824.388,290.041l-7.427,42.159l0.529,0.529c5.128-5.121,10.612-8.792,16.439-11.003
	c5.839-2.21,12.464-3.312,19.887-3.312c9.187,0,17.321,1.676,24.396,5.036c7.068,3.361,13.03,7.867,17.895,13.522
	c4.864,5.656,8.573,12.33,11.142,20.015c2.559,7.689,3.843,15.866,3.843,24.525c0,9.547-1.857,18.43-5.572,26.648
	c-3.708,8.226-8.706,15.337-14.982,21.348c-6.277,6.011-13.561,10.654-21.871,13.918c-8.312,3.265-17.146,4.817-26.521,4.646
	c-9.012,0-17.627-1.193-25.848-3.586c-8.219-2.381-15.509-6.052-21.87-11.002c-6.368-4.944-11.453-11.09-15.251-18.431
	c-3.806-7.332-5.791-15.861-5.962-25.585h37.647c0.882,8.488,4.072,15.246,9.552,20.282c5.469,5.04,12.458,7.562,20.945,7.562
	c4.95,0,9.412-1.012,13.384-3.046c3.975-2.033,7.337-4.688,10.076-7.956c2.74-3.271,4.864-7.069,6.361-11.399
	c1.51-4.335,2.254-8.797,2.254-13.399c0-4.768-0.705-9.274-2.119-13.518c-1.418-4.244-3.531-7.957-6.356-11.137
	c-2.837-3.184-6.192-5.656-10.078-7.428c-3.896-1.765-8.4-2.648-13.521-2.648c-6.716,0-12.202,1.198-16.446,3.58
	c-4.242,2.381-8.219,6.143-11.934,11.264h-33.933l18.292-102.606h103.671v31.021H824.388z"/>
<g>
	<path fill="#ADFF2F" d="M1042.312,353.675l-91.637-36.454v-28.709l126.844,50.432v29.468l-126.844,50.187v-28.469L1042.312,353.675
		z"/>
	<path fill="#ADFF2F" d="M1192.122,353.675l-91.625-36.454v-28.709l126.832,50.432v29.468l-126.832,50.187v-28.469L1192.122,353.675
		z"/>
</g>
</svg>
