<?xml version="1.0" encoding="utf-8"?>
<!-- Generator: Adobe Illustrator 16.0.0, SVG Export Plug-In . SVG Version: 6.00 Build 0)  -->
<!DOCTYPE svg PUBLIC "-//W3C//DTD SVG 1.1//EN" "http://www.w3.org/Graphics/SVG/1.1/DTD/svg11.dtd">
<svg version="1.1" id="Layer_1" xmlns="http://www.w3.org/2000/svg" xmlns:xlink="http://www.w3.org/1999/xlink" x="0px" y="0px"
	 width="1120.989px" height="412.479px" viewBox="85.093 195.601 1120.989 412.479"
	 enable-background="new 85.093 195.601 1120.989 412.479" xml:space="preserve">
<g>
	<path fill="#ADFF2F" d="M244.301,409.811l-32.65-131.146h-0.538L179,409.811h-42.907l-51-192.671h42.364l30.491,131.145h0.542
		l33.464-131.145h39.662l32.921,132.764h0.543l31.564-132.764h41.562l-51.809,192.671H244.301z"/>
	<path fill="#ADFF2F" d="M440.743,217.139c12.417,0,23.967,1.98,34.675,5.939c10.702,3.959,19.966,9.894,27.793,17.808
		c7.827,7.917,13.938,17.811,18.354,29.688c4.405,11.869,6.604,25.816,6.604,41.82c0,14.035-1.797,26.982-5.39,38.857
		c-3.604,11.872-9.042,22.129-16.335,30.763c-7.284,8.635-16.364,15.424-27.25,20.375c-10.888,4.947-23.702,7.423-38.453,7.423
		h-83.105V217.139H440.743z M437.774,374.19c6.116,0,12.054-0.988,17.812-2.971c5.752-1.979,10.881-5.266,15.381-9.85
		c4.494-4.588,8.097-10.566,10.789-17.946c2.703-7.371,4.048-16.366,4.048-26.981c0-9.712-0.943-18.486-2.833-26.311
		c-1.889-7.827-4.993-14.528-9.308-20.105c-4.319-5.569-10.035-9.846-17.132-12.82c-7.109-2.963-15.886-4.447-26.316-4.447h-30.219
		V374.19H437.774z"/>
	<path fill="#ADFF2F" d="M599.951,217.139v192.671h-42.365V217.139H599.951z"/>
</g>
<g>
	<path fill="#40E0D0" d="M693.251,283.977c-6.427,0-11.807,1.462-16.149,4.396c-4.346,2.925-7.885,6.702-10.621,11.328
		c-2.744,4.635-4.678,9.73-5.811,15.298c-1.134,5.577-1.701,11.1-1.701,16.578c0,5.292,0.567,10.67,1.701,16.149
		c1.133,5.486,2.973,10.438,5.524,14.875c2.548,4.442,5.995,8.077,10.335,10.91c4.348,2.83,9.641,4.25,15.873,4.25
		c9.634,0,17.038-2.694,22.244-8.077c5.187-5.385,8.444-12.611,9.771-21.671h38.82c-2.652,19.452-10.203,34.28-22.669,44.479
		c-12.471,10.205-28.432,15.298-47.886,15.298c-10.96,0-21.019-1.84-30.176-5.524c-9.166-3.681-16.954-8.823-23.38-15.443
		c-6.418-6.603-11.424-14.491-15.009-23.65c-3.593-9.165-5.385-19.22-5.385-30.18c0-11.335,1.651-21.86,4.954-31.592
		c3.308-9.728,8.171-18.134,14.597-25.212c6.421-7.087,14.257-12.61,23.517-16.579c9.25-3.966,19.83-5.951,31.73-5.951
		c8.687,0,17.05,1.135,25.08,3.396c8.023,2.272,15.206,5.719,21.53,10.35c6.324,4.627,11.473,10.39,15.443,17.281
		c3.967,6.896,6.232,15.068,6.798,24.506h-39.381C720.356,292.38,710.434,283.977,693.251,283.977z"/>
	<path fill="#40E0D0" d="M786.751,299.14c3.584-9.542,8.687-17.663,15.303-24.373c6.605-6.704,14.538-11.901,23.793-15.581
		c9.255-3.687,19.646-5.528,31.167-5.528c11.522,0,21.964,1.842,31.314,5.528c9.347,3.679,17.326,8.876,23.941,15.581
		c6.61,6.709,11.705,14.831,15.3,24.373c3.583,9.535,5.38,20.156,5.38,31.869c0,11.717-1.797,22.295-5.38,31.733
		c-3.595,9.453-8.688,17.522-15.3,24.226c-6.615,6.707-14.596,11.859-23.941,15.443c-9.352,3.588-19.792,5.38-31.314,5.38
		c-11.521,0-21.912-1.792-31.167-5.38c-9.255-3.584-17.188-8.737-23.793-15.443c-6.616-6.703-11.719-14.772-15.303-24.226
		c-3.588-9.438-5.385-20.017-5.385-31.733C781.366,319.296,783.163,308.675,786.751,299.14z M823.299,348.152
		c1.134,5.569,3.065,10.581,5.807,15.02c2.736,4.438,6.379,7.981,10.912,10.618c4.531,2.651,10.198,3.972,16.996,3.972
		c6.807,0,12.517-1.319,17.146-3.972c4.629-2.637,8.311-6.179,11.047-10.618c2.74-4.438,4.678-9.45,5.812-15.02
		c1.138-5.567,1.699-11.284,1.699-17.145c0-5.852-0.562-11.617-1.699-17.283c-1.134-5.664-3.07-10.669-5.812-15.018
		c-2.736-4.342-6.418-7.881-11.047-10.623c-4.629-2.735-10.339-4.108-17.146-4.108c-6.798,0-12.465,1.373-16.996,4.108
		c-4.533,2.741-8.176,6.281-10.912,10.623c-2.74,4.349-4.672,9.354-5.807,15.018c-1.134,5.666-1.699,11.432-1.699,17.283
		C821.6,336.869,822.165,342.585,823.299,348.152z"/>
	<path fill="#40E0D0" d="M997.271,257.626v20.4h0.843c5.104-8.503,11.715-14.68,19.838-18.557
		c8.119-3.874,16.436-5.811,24.935-5.811c10.761,0,19.595,1.465,26.484,4.39c6.896,2.939,12.329,6.998,16.296,12.187
		c3.967,5.201,6.757,11.524,8.358,18.983c1.604,7.469,2.411,15.727,2.411,24.79v90.104h-40.241v-82.733
		c0-12.085-1.885-21.109-5.662-27.057c-3.776-5.947-10.484-8.922-20.113-8.922c-10.958,0-18.896,3.256-23.802,9.772
		c-4.914,6.517-7.366,17.237-7.366,32.156v76.785h-40.238V257.626H997.271z"/>
	<path fill="#40E0D0" d="M1111.73,284.541v-26.915h24.088v-11.332c0-13.034,4.059-23.705,12.18-32.018
		c8.117-8.308,20.398-12.465,36.835-12.465c3.588,0,7.176,0.135,10.771,0.419c3.582,0.286,7.079,0.523,10.479,0.709v30.037
		c-4.726-0.57-9.632-0.854-14.73-0.854c-5.483,0-9.399,1.276-11.76,3.828c-2.363,2.555-3.545,6.85-3.545,12.892v8.785h27.773v26.915
		h-27.773v119.57h-40.229v-119.57L1111.73,284.541L1111.73,284.541z"/>
</g>
<path fill="#7FFFD4" d="M395.76,468.902c2.556-8.238,6.388-15.431,11.511-21.596c5.119-6.158,11.559-10.953,19.318-14.396
	c7.758-3.438,16.679-5.157,26.752-5.157c7.681,0,14.997,1.196,21.957,3.599c6.958,2.396,13.076,5.841,18.354,10.32
	c5.277,4.479,9.477,9.999,12.601,16.553c3.119,6.562,4.683,13.923,4.683,22.077c0,8.481-1.37,15.761-4.084,21.836
	c-2.721,6.083-6.319,11.479-10.799,16.194c-4.479,4.723-9.559,8.999-15.235,12.84c-5.686,3.839-11.399,7.642-17.158,11.396
	c-5.757,3.762-11.359,7.796-16.794,12.12c-5.443,4.32-10.243,9.356-14.397,15.114h79.421v29.275H388.554
	c0-9.755,1.404-18.233,4.204-25.435c2.798-7.201,6.595-13.639,11.395-19.318c4.798-5.67,10.44-10.92,16.916-15.715
	c6.474-4.795,13.317-9.683,20.519-14.641c3.676-2.558,7.593-5.156,11.754-7.797c4.158-2.634,7.951-5.555,11.398-8.755
	c3.435-3.201,6.321-6.795,8.636-10.801c2.319-3.995,3.48-8.558,3.48-13.676c0-8.16-2.362-14.519-7.08-19.076
	c-4.717-4.558-10.761-6.842-18.111-6.842c-4.964,0-9.163,1.167-12.596,3.48c-3.444,2.319-6.204,5.36-8.281,9.119
	c-2.084,3.759-3.561,7.919-4.442,12.479c-0.877,4.56-1.32,9.076-1.32,13.556h-32.626
	C392.069,486.061,393.192,477.145,395.76,468.902z"/>
<path fill="#7FFFD4" d="M530.659,473.223c3.285-11.113,7.725-20.035,13.317-26.758c5.6-6.716,12.122-11.511,19.556-14.393
	c7.439-2.88,15.317-4.319,23.643-4.319c8.477,0,16.438,1.439,23.875,4.319c7.436,2.882,13.997,7.677,19.673,14.393
	c5.676,6.723,10.161,15.645,13.438,26.758c3.272,11.118,4.914,24.837,4.914,41.152c0,16.797-1.642,30.835-4.914,42.108
	c-3.278,11.278-7.765,20.276-13.438,26.995c-5.676,6.721-12.237,11.521-19.673,14.4c-7.438,2.877-15.397,4.32-23.875,4.32
	c-8.325,0-16.203-1.443-23.643-4.32c-7.434-2.881-13.956-7.681-19.556-14.4c-5.593-6.719-10.032-15.717-13.317-26.995
	c-3.278-11.273-4.914-25.312-4.914-42.108C525.745,498.06,527.381,484.341,530.659,473.223z M560.297,531.771
	c0.321,6.801,1.323,13.36,3.003,19.677c1.676,6.323,4.354,11.721,8.039,16.198c3.675,4.479,8.955,6.719,15.835,6.719
	c7.037,0,12.432-2.238,16.195-6.719c3.754-4.479,6.474-9.875,8.155-16.198c1.681-6.315,2.684-12.876,3.003-19.677
	c0.313-6.799,0.479-12.597,0.479-17.396c0-2.88-0.043-6.357-0.121-10.44c-0.082-4.076-0.396-8.275-0.959-12.591
	c-0.561-4.324-1.359-8.601-2.4-12.842c-1.041-4.234-2.598-8.035-4.68-11.396c-2.078-3.36-4.721-6.076-7.917-8.158
	c-3.2-2.077-7.124-3.118-11.754-3.118c-4.647,0-8.522,1.041-11.637,3.118c-3.128,2.082-5.685,4.798-7.685,8.158
	c-2,3.361-3.562,7.162-4.68,11.396c-1.118,4.241-1.918,8.518-2.392,12.842c-0.485,4.314-0.767,8.515-0.843,12.591
	c-0.084,4.083-0.121,7.562-0.121,10.44C559.818,519.175,559.973,524.973,560.297,531.771z"/>
<path fill="#7FFFD4" d="M710.332,599.077V490.139h-42.229v-25.677c5.919,0.164,11.638-0.276,17.147-1.317
	c5.521-1.035,10.48-2.877,14.883-5.517c4.401-2.639,8.117-6.121,11.158-10.436c3.036-4.325,5.036-9.682,6-16.077H744.4v167.962
	H710.332z"/>
<path fill="#7FFFD4" d="M824.006,459.188l-6.721,38.151l0.479,0.479c4.642-4.635,9.604-7.956,14.878-9.956
	c5.283-2,11.277-2.998,17.995-2.998c8.314,0,15.676,1.516,22.077,4.557c6.398,3.041,11.793,7.119,16.195,12.238
	c4.403,5.118,7.759,11.158,10.083,18.112c2.313,6.957,3.477,14.358,3.477,22.192c0,8.642-1.68,16.679-5.04,24.118
	c-3.356,7.443-7.88,13.879-13.562,19.316c-5.68,5.439-12.271,9.644-19.792,12.598c-7.521,2.953-15.518,4.357-24,4.203
	c-8.155,0-15.953-1.079-23.393-3.246c-7.438-2.154-14.034-5.478-19.792-9.955c-5.764-4.477-10.362-10.035-13.803-16.679
	c-3.441-6.636-5.24-14.354-5.395-23.154h34.068c0.799,7.682,3.687,13.799,8.646,18.354c4.95,4.562,11.273,6.845,18.954,6.845
	c4.479,0,8.519-0.915,12.111-2.756c3.599-1.842,6.64-4.242,9.119-7.201s4.401-6.397,5.757-10.315
	c1.367-3.923,2.039-7.962,2.039-12.127c0-4.313-0.638-8.392-1.916-12.231c-1.284-3.841-3.198-7.201-5.754-10.078
	c-2.567-2.881-5.603-5.119-9.119-6.723c-3.524-1.599-7.603-2.396-12.237-2.396c-6.077,0-11.042,1.085-14.881,3.24
	c-3.842,2.153-7.44,5.559-10.802,10.192h-30.708l16.553-92.854h93.819v28.072H824.006z"/>
<g>
	<path fill="#ADFF2F" d="M1021.22,516.773l-82.929-32.988v-25.983l114.789,45.641v26.67l-114.789,45.415v-25.765L1021.22,516.773z"
		/>
	<path fill="#ADFF2F" d="M1156.792,516.773l-82.917-32.988v-25.983l114.777,45.641v26.67l-114.777,45.415v-25.765L1156.792,516.773z
		"/>
</g>
</svg>
